<?xml version="1.0" encoding="UTF-8"?>
<svg width="24px" height="24px" viewBox="0 0 24 24" version="1.1" xmlns="http://www.w3.org/2000/svg" xmlns:xlink="http://www.w3.org/1999/xlink">
    <!-- Generator: Sketch 47.1 (45422) - http://www.bohemiancoding.com/sketch -->
    <title>sound-icon</title>
    <desc>Created with Sketch.</desc>
    <defs></defs>
    <g id="Symbols" stroke="none" stroke-width="1" fill="none" fill-rule="evenodd">
        <g id="sound-icon" fill-rule="nonzero">
            <g id="Group" transform="translate(0.846605, 0.000000)">
                <circle id="Oval" stroke="#000000" stroke-width="1.3" fill="#FFFFFF" cx="11.241" cy="11.964" r="11.124"></circle>
                <g transform="translate(4.000000, 5.000000)" id="Shape" fill="#000000">
                    <polygon points="0.417 6.815 0.417 4.094 3.636 4.094 9.081 0.463 9.081 6.816 9.081 6.854 9.081 13.207 3.636 9.576 0.417 9.576"></polygon>
                    <path d="M12.191,11.449 C11.998,11.449 11.804,11.375 11.657,11.224 C11.365,10.929 11.368,10.453 11.664,10.162 C12.785,9.057 13.335,7.908 13.299,6.75 C13.241,4.903 11.716,3.554 11.701,3.54 C11.389,3.268 11.354,2.795 11.625,2.482 C11.895,2.169 12.367,2.132 12.681,2.402 C12.764,2.473 14.713,4.175 14.8,6.685 C14.856,8.285 14.155,9.814 12.72,11.232 C12.573,11.377 12.382,11.449 12.191,11.449 Z"></path>
                    <g transform="translate(9.000000, 4.000000)">
                        <path d="M1.683,4.459 C1.615,4.459 1.547,4.434 1.495,4.381 C1.392,4.277 1.394,4.11 1.498,4.006 C1.893,3.617 2.086,3.213 2.073,2.805 C2.053,2.155 1.516,1.68 1.511,1.676 C1.401,1.579 1.389,1.412 1.484,1.303 C1.58,1.194 1.746,1.18 1.856,1.274 C1.885,1.3 2.571,1.899 2.602,2.783 C2.622,3.345 2.375,3.885 1.87,4.384 C1.817,4.434 1.75,4.459 1.683,4.459 Z"></path>
                        <path d="M1.683,4.895 C1.495,4.895 1.318,4.821 1.185,4.687 C0.913,4.412 0.916,3.967 1.191,3.697 C1.496,3.396 1.646,3.1 1.637,2.819 C1.623,2.369 1.225,2.007 1.221,2.003 C0.933,1.752 0.902,1.31 1.154,1.019 C1.287,0.866 1.48,0.777 1.683,0.777 C1.85,0.777 2.012,0.837 2.139,0.946 C2.227,1.022 3,1.717 3.036,2.769 C3.059,3.458 2.77,4.107 2.175,4.694 C2.043,4.822 1.868,4.895 1.683,4.895 Z"></path>
                    </g>
                </g>
            </g>
        </g>
    </g>
</svg>