<?xml version="1.0" standalone="no"?>
<!DOCTYPE svg PUBLIC "-//W3C//DTD SVG 20010904//EN"
 "http://www.w3.org/TR/2001/REC-SVG-20010904/DTD/svg10.dtd">
<svg version="1.0" xmlns="http://www.w3.org/2000/svg"
 width="100.000000pt" height="100.000000pt" viewBox="0 0 100.000000 100.000000"
 preserveAspectRatio="xMidYMid meet">
<metadata>
Created by potrace 1.11, written by Peter Selinger 2001-2013
</metadata>
<g transform="translate(0.000000,100.000000) scale(0.100000,-0.100000)"
fill="#000000" stroke="none">
<path d="M84 868 c-34 -16 -44 -52 -44 -159 0 -98 1 -101 29 -130 l29 -29 155
0 c141 0 157 2 181 21 19 15 26 30 26 55 0 47 -32 48 -45 2 l-10 -33 -146 -3
c-125 -2 -148 0 -160 14 -8 10 -14 48 -15 105 -3 133 -2 134 170 133 75 0 140
-4 146 -10 5 -5 11 -21 13 -34 4 -25 26 -34 39 -16 11 16 -2 60 -23 79 -18 15
-42 17 -173 16 -83 0 -161 -5 -172 -11z"/>
<path d="M568 863 c-34 -21 -38 -37 -38 -156 0 -96 1 -99 29 -128 l29 -29 146
0 c188 0 216 10 216 78 0 25 -4 32 -20 32 -14 0 -20 -7 -20 -23 0 -43 -16 -47
-166 -47 -115 0 -144 3 -154 15 -8 10 -14 50 -15 107 -2 131 -1 131 158 133
137 1 167 -5 167 -32 0 -10 4 -24 9 -32 15 -23 42 5 36 37 -9 53 -23 57 -193
60 -134 2 -161 0 -184 -15z"/>
<path d="M360 470 c-14 -3 -66 -32 -115 -65 -60 -40 -100 -60 -120 -60 -29 0
-30 1 -32 55 -1 30 -2 59 -2 63 -1 5 -11 7 -23 5 -21 -3 -21 -7 -21 -153 0
-146 1 -150 21 -153 20 -3 22 2 23 40 1 24 0 55 -1 71 -1 26 3 30 43 30 9 0
66 -33 126 -72 93 -62 114 -72 145 -69 36 3 36 4 -84 82 l-121 79 111 74 c60
40 110 74 110 76 0 4 -33 3 -60 -3z"/>
<path d="M452 471 c-8 -5 6 -54 46 -159 57 -152 57 -153 87 -150 28 3 32 9 75
125 25 67 48 124 51 127 3 3 26 -52 51 -122 44 -121 47 -127 75 -130 30 -3 30
-2 86 143 32 80 57 150 57 156 0 6 -10 9 -21 7 -17 -2 -30 -27 -68 -125 -25
-68 -49 -123 -52 -123 -3 0 -26 55 -50 123 -44 118 -46 122 -76 125 -28 3 -32
-1 -47 -40 -9 -24 -31 -83 -49 -132 l-34 -89 -49 131 c-48 129 -59 147 -82
133z"/>
</g>
</svg>
