<?xml version="1.0" encoding="UTF-8"?>
<svg width="349px" height="286px" viewBox="0 0 349 286" version="1.1" xmlns="http://www.w3.org/2000/svg" xmlns:xlink="http://www.w3.org/1999/xlink">
    <!-- Generator: Sketch 47.1 (45422) - http://www.bohemiancoding.com/sketch -->
    <title>Logo</title>
    <desc>Created with Sketch.</desc>
    <defs></defs>
    <g id="Symbols" stroke="none" stroke-width="1" fill="none" fill-rule="evenodd">
        <g id="Logo" fill-rule="nonzero">
            <g id="cckw-logo-white" transform="translate(0.000000, 2.000000)">
                <polygon id="Shape" fill="#FFFFFF" points="5.5 114.913 5.5 21.913 24 6.413 324.5 6.413 343.5 21.913 343.5 263.913 327.5 280.413 24.5 280.413 5.5 264.913"></polygon>
                <g id="Group" fill="#000000">
                    <path d="M68.615,133.289 L130.401,133.289 C156.918,133.289 162.403,124.015 162.403,106.904 L162.403,100.504 L150.386,100.504 L150.386,106.382 C150.386,119.181 145.423,122.84 128.181,122.84 L69.921,122.84 C57.643,122.84 47.716,119.181 47.716,102.725 L47.716,63.831 C47.716,47.373 57.643,43.716 69.921,43.716 L127.789,43.716 C139.544,43.716 149.472,44.501 149.472,60.567 L149.472,64.877 L160.704,64.877 L160.704,56.778 C160.704,44.109 154.306,33.267 131.054,33.267 L68.615,33.267 C43.016,33.267 34.917,44.762 34.917,68.665 L34.917,97.891 C34.917,121.794 43.016,133.289 68.615,133.289 Z" id="Shape"></path>
                    <path d="M217.611,133.289 L279.398,133.289 C305.914,133.289 311.4,124.015 311.4,106.904 L311.4,100.504 L299.381,100.504 L299.381,106.382 C299.381,119.181 294.418,122.84 277.176,122.84 L218.916,122.84 C206.638,122.84 196.711,119.181 196.711,102.725 L196.711,63.831 C196.711,47.373 206.638,43.716 218.916,43.716 L276.783,43.716 C288.539,43.716 298.467,44.501 298.467,60.567 L298.467,64.877 L309.701,64.877 L309.701,56.778 C309.701,44.109 303.299,33.267 280.049,33.267 L217.611,33.267 C192.01,33.267 183.912,44.762 183.912,68.665 L183.912,97.891 C183.912,121.794 192.012,133.289 217.611,133.289 Z" id="Shape"></path>
                    <polygon id="Shape" points="150.089 157.661 149.829 157.398 128.929 157.398 69.628 197.497 50.198 197.497 50.198 157.398 37.399 157.398 37.399 251.965 50.198 251.965 50.198 207.946 68.584 207.946 133.501 251.965 155.969 251.965 156.228 251.706 82.3 202.855"></polygon>
                    <polygon id="Shape" points="277.629 240.473 247.309 157.398 230.85 157.398 200.139 240.079 168.773 157.398 156.235 157.398 192.172 251.965 208.629 251.965 239.078 168.892 269.529 251.965 285.988 251.965 321.922 157.398 309.385 157.398"></polygon>
                    <path d="M321.574,0.336 L27.888,0.336 C13.06,0.336 0.995,12.4 0.995,27.229 L0.995,258.512 C0.995,273.34 13.059,285.405 27.888,285.405 L321.575,285.405 C336.403,285.405 348.468,273.341 348.468,258.512 L348.468,27.229 C348.467,12.4 336.402,0.336 321.574,0.336 Z M338.383,258.512 C338.383,267.779 330.842,275.32 321.574,275.32 L27.888,275.32 C18.62,275.32 11.08,267.779 11.08,258.512 L11.08,27.229 C11.08,17.961 18.62,10.421 27.888,10.421 L321.575,10.421 C330.843,10.421 338.384,17.961 338.384,27.229 L338.383,258.512 L338.383,258.512 Z" id="Shape"></path>
                </g>
            </g>
        </g>
    </g>
</svg>